{"accessors":[{"bufferView":0,"componentType":5126,"count":72,"max":[-0.14058701694011688,1.5163750648498535,1.1181844472885132],"min":[-0.47031664848327637,0.8934902548789978,0.848066508769989],"normalized":false,"type":"VEC3"},{"bufferView":1,"componentType":5126,"count":72,"max":[0.6908628940582275,0.3197219967842102,0.9563250541687012,1.0],"min":[-0.9924432039260864,-0.924159586429596,-0.4096906781196594,1.0],"normalized":false,"type":"VEC4"},{"bufferView":2,"componentType":5126,"count":72,"max":[0.9386534094810486,0.9471735954284668,0.8992054462432861],"min":[-0.9507700204849243,-0.9927471876144409,-0.9271075129508972],"normalized":false,"type":"VEC3"},{"bufferView":3,"componentType":5126,"count":72,"max":[1.0,1.0,1.0,1.0],"min":[0.054901961237192154,0.7333333492279053,0.12941177189350128,1.0],"normalized":false,"type":"VEC4"},{"bufferView":4,"componentType":5121,"count":72,"max":[71.0],"min":[0.0],"normalized":false,"type":"SCALAR"}],"asset":{"generator":"Godot Engine v4.6.dev4.official@bd2ca13c6f3a5198eac035c855dcd1759e077313","version":"2.0"},"bufferViews":[{"buffer":0,"byteLength":864,"byteStride":12,"target":34962},{"buffer":0,"byteLength":1152,"byteOffset":864,"byteStride":16,"target":34962},{"buffer":0,"byteLength":864,"byteOffset":2016,"byteStride":12,"target":34962},{"buffer":0,"byteLength":1152,"byteOffset":2880,"byteStride":16,"target":34962},{"buffer":0,"byteLength":72,"byteOffset":4032,"target":34963}],"buffers":[{"byteLength":4104,"uri":"poly_2025-12-09T16-25-020.bin"}],"extensionsUsed":["GODOT_single_root"],"materials":[{"alphaMode":"BLEND","extensions":{},"pbrMetallicRoughness":{"baseColorFactor":[1.0,1.0,1.0,1.0],"metallicFactor":0.0,"roughnessFactor":1.0}}],"meshes":[{"primitives":[{"attributes":{"COLOR_0":3,"NORMAL":2,"POSITION":0,"TANGENT":1},"indices":4,"material":0,"mode":4}]}],"nodes":[{"children":[1],"name":"PolyToolExport"},{"mesh":0,"name":"PolyMesh"}],"scene":0,"scenes":[{"nodes":[0]}]}